# AST/ASF file generated using VICON BodyLanguage
# -----------------------------------------------
:version 1.10
:name VICON
:units
  mass 1.0
  length 0.45
  angle deg
:documentation
   .ast/.asf automatically generated from VICON data using
   VICON BodyBuilder and BodyLanguage model FoxedUp or BRILLIANT.MOD
:root
   order TX TY TZ RX RY RZ
   axis XYZ
   position 0 0 0  
   orientation 0 0 0 
:bonedata
  begin
     id 1 
     name lhipjoint
     direction 0.624716 -0.669793 0.401383 
     length 2.38238 
     axis 0 0 0  XYZ
  end
  begin
     id 2 
     name lfemur
     direction 0.34202 -0.939693 0  
     length 6.4574  
     axis 0 0 20  XYZ
    dof rx ry rz
    limits (-160.0 20.0)
           (-70.0 70.0)
           (-60.0 70.0)
  end
  begin
     id 3 
     name ltibia
     direction 0.34202 -0.939693 0   
     length 7.68739   
     axis 0 0 20   XYZ
    dof rx
    limits (-10.0 170.0)
  end
  begin
     id 4 
     name lfoot
     direction 0.0681309 -0.187188 0.979959   
     length 2.46615   
     axis -90 7.62852e-016 20   XYZ
    dof rx rz
    limits (-45.0 90.0)
           (-70.0 20.0)
  end
  begin
     id 5 
     name ltoes
     direction 1.53566e-011 -4.21819e-011 1   
     length 1.2376   
     axis -90 7.62852e-016 20   XYZ
    dof rx
    limits (-90.0 20.0)
  end
  begin
     id 6 
     name rhipjoint
     direction -0.644473 -0.655875 0.393043   
     length 2.43293  
     axis 0 0 0  XYZ 
  end
  begin
     id 7 
     name rfemur
     direction -0.34202 -0.939693 0   
     length 6.7025   
     axis 0 0 -20   XYZ
    dof rx ry rz
    limits (-160.0 20.0)
           (-70.0 70.0)
           (-70.0 60.0)
  end
  begin
     id 8 
     name rtibia
     direction -0.34202 -0.939693 0   
     length 7.80547   
     axis 0 0 -20   XYZ
    dof rx
    limits (-10.0 170.0)
 end
 begin
     id 9 
     name rfoot
     direction -0.0756734 -0.207911 0.975216   
     length 2.40315  
     axis -90 -7.62852e-016 -20   XYZ
    dof rx rz
    limits (-45.0 90.0)
           (-20.0 70.0)
  end
  begin
     id 10 
     name rtoes
     direction -1.5353e-011 -4.21879e-011 1   
     length 1.20477   
     axis -90 -7.62852e-016 -20   XYZ
    dof rx
    limits (-90.0 20.0)
  end
  begin
     id 11 
     name lowerback
     direction 0.0160353 0.987463 -0.157037   
     length 2.18572   
     axis 0 0 0   XYZ
    dof rx ry rz
    limits (-20.0 45.0)
           (-30.0 30.0)
           (-30.0 30.0)
  end
  begin
     id 12 
     name upperback
     direction -0.00499661 0.999756 0.0215076   
     length 2.18016   
     axis 0 0 0   XYZ
    dof rx ry rz
    limits (-20.0 45.0)
           (-30.0 30.0)
           (-30.0 30.0)
  end
  begin
     id 13 
     name thorax
     direction -0.00921346 0.995333 0.0960619   
     length 2.24923   
     axis 0 0 0   XYZ
    dof rx ry rz
    limits (-20.0 45.0)
           (-30.0 30.0)
           (-30.0 30.0)
  end
  begin
     id 14 
     name lowerneck
     direction 0.0274184 0.991181 0.12965   
     length 1.70911   
     axis 0 0 0   XYZ
    dof rx ry rz
    limits (-20.0 45.0)
           (-30.0 30.0)
           (-30.0 30.0)
  end
  begin
     id 15 
     name upperneck
     direction 0.0015627 0.999959 -0.00893559   
     length 1.69312   
     axis 0 0 0   XYZ
    dof rx ry rz
    limits (-20.0 45.0)
           (-30.0 30.0)
           (-30.0 30.0)
  end
  begin
     id 16
     name head
     direction -0.00230242 0.999856 -0.0168327  
     length 1.80241  
     axis 0 0 0   XYZ
    dof rx ry rz
    limits (-20.0 45.0)
           (-30.0 30.0)
           (-30.0 30.0)
  end
  begin
     id 17 
     name lclavicle
     direction 0.955523 0.290741 -0.0494489  
     length 3.84275  
     axis 0 0 0   XYZ
    dof ry rz
    limits (-20.0 10.0)
           (0.0 20.0)
  end
  begin
     id 18 
     name lhumerus
     direction 1 -4.48967e-011 -3.18382e-028   
     length 5.17714   
     axis 180 -30 -90   XYZ
    dof rx ry rz
    limits (-60.0 90.0)
           (-90.0 90.0)
           (-90.0 90.0)
  end
  begin
     id 19
     name lradius
     direction 1 -4.48968e-011 -2.22911e-027   
     length 3.43679   
     axis 180 -30 -90   XYZ
    dof rx
    limits (-10.0 170.0)
  end
  begin
     id 20
     name lwrist
     direction 1 -4.48951e-011 -6.32245e-027   
     length 1.7184   
     axis 3.57107e-015 90 90   XYZ
    dof ry
    limits (-180.0 0.0)
 end
  begin
     id 21 
     name lhand
     direction 1 -4.48924e-011 -1.26431e-026   
     length 0.573117   
     axis 8.06912e-015 90 90   XYZ
    dof rx rz
    limits (-90.0 90.0)
           (-45.0 45.0)
  end
  begin
     id 22 
     name lfingers
     direction 1 -4.49001e-011 -2.52965e-026   
     length 0.462062   
     axis 1.61381e-014 90 90   XYZ
    dof rx
    limits (0.0 90.0)
  end
  begin
     id 23
     name lthumb
     direction 0.707107 -6.35008e-011 0.707107   
     length 0.663431   
     axis -90 45 -1.62303e-014   XYZ
    dof rx rz
    limits (-45.0 45.0)
           (-45.0 45.0)
  end
  begin
     id 24 
     name rclavicle
     direction -0.963917 0.256881 -0.0698287   
     length 3.73057  
     axis 0 0 0   XYZ 
    dof ry rz
    limits (-10.0 20.0)
           (-20.0 0.0)
  end
  begin
     id 25 
     name rhumerus
     direction -1 -4.48962e-011 -2.73982e-027  
     length 5.23908   
     axis 180 30 90   XYZ
    dof rx ry rz
    limits (-90.0 60.0)
           (-90.0 90.0)
           (-90.0 90.0)
  end
  begin
     id 26 
     name rradius
     direction -1 -4.48968e-011 -4.33218e-027   
     length 3.46485   
     axis 180 30 90   XYZ
    dof rx
    limits (-10.0 170.0)
  end
  begin
     id 27 
     name rwrist
     direction -1 -4.48989e-011 -6.32372e-027   
     length 1.73243   
     axis 3.57107e-015 -90 -90   XYZ
    dof ry
    limits (-180.0 0.0)
  end
  begin
     id 28
     name rhand
     direction -1 -4.48948e-011 -1.26448e-026   
     length 0.608752   
     axis 8.06912e-015 -90 -90   XYZ
    dof rx rz
    limits (-90.0 90.0)
           (-45.0 45.0)
  end
  begin
     id 29
     name rfingers
     direction -1 -4.48962e-011 -2.52913e-026   
     length 0.490792   
     axis 1.61381e-014 -90 -90   XYZ
    dof rx
    limits (0.0 90.0)
  end
  begin
     id 30
     name rthumb
     direction -0.707107 -6.34878e-011 0.707107   
     length 0.704682   
     axis -90 -45 1.62303e-014   XYZ
    dof rx rz
    limits (-45.0 45.0)
           (-45.0 45.0)
  end
:hierarchy
  begin
    root lhipjoint rhipjoint lowerback
    lhipjoint lfemur
    lfemur ltibia
    ltibia lfoot
    lfoot ltoes
    rhipjoint rfemur
    rfemur rtibia
    rtibia rfoot
    rfoot rtoes
    lowerback upperback
    upperback thorax
    thorax lowerneck lclavicle rclavicle
    lowerneck upperneck
    upperneck head
    lclavicle lhumerus
    lhumerus lradius
    lradius lwrist
    lwrist lhand lthumb
    lhand lfingers
    rclavicle rhumerus
    rhumerus rradius
    rradius rwrist
    rwrist rhand rthumb
    rhand rfingers
  end

#!OML:ASF G:\JayActor3\Patient Classification 1\Patient 1\Session 6\male.ASF
:FULLY-SPECIFIED
:DEGREES
463
root 6.81183 14.9304 -16.7581 23.7316 -50.217 -17.0911
lowerback 28.6072 -1.91663 -4.94309
upperback 5.56747 -4.29196 -1.17539
thorax -9.25216 -2.00388 3.05576
lowerneck -7.21575 -5.99713 0.590233
upperneck 16.2988 -8.84249 2.97874
head 6.24641 -4.06086 0.175031
rclavicle -9.06458e-014 5.40694e-014
rhumerus -36.9877 14.915 -91.963
rradius 126.327
rwrist 13.1159
rhand 15.3832 -20.7587
rfingers 7.12502
rthumb 40.2122 -45.9204
lclavicle -9.06458e-014 5.40694e-014
lhumerus -43.3386 -3.25016 90.8588
lradius 132.291
lwrist -0.487378
lhand 0.029197 42.3915
lfingers 7.12502
lthumb 25.6183 70.6883
rfemur -50.3952 -2.69733 29.602
rtibia 62.8417
rfoot -19.5934 -2.55548
rtoes -2.0617
lfemur -48.6028 27.0441 -20.0054
ltibia 66.4929
lfoot -30.8523 13.1068
ltoes -5.57249
464
root 6.81277 14.932 -16.7557 23.717 -50.0557 -17.0902
lowerback 28.6018 -1.90947 -4.94243
upperback 5.56223 -4.28104 -1.17175
thorax -9.25598 -1.99809 3.05554
lowerneck -7.20894 -5.97005 0.59947
upperneck 16.2637 -8.80263 2.9702
head 6.23273 -4.04236 0.174892
rclavicle 6.36111e-014 -4.13472e-014
rhumerus -36.9912 14.8782 -91.9297
rradius 126.345
rwrist 13.1122
rhand 15.3743 -20.7511
rfingers 7.12502
rthumb 40.2039 -45.9153
lclavicle 6.36111e-014 -4.13472e-014
lhumerus -43.3432 -3.2461 90.8425
lradius 132.283
lwrist -0.479353
lhand 0.0274396 42.3748
lfingers 7.12502
lthumb 25.6167 70.6718
rfemur -50.3659 -2.76001 29.6207
rtibia 62.8238
rfoot -19.5985 -2.60909
rtoes -2.15244
lfemur -48.5785 26.8406 -19.9388
ltibia 66.4676
lfoot -30.848 13.1571
ltoes -5.57441
465
root 6.81376 14.9333 -16.7534 23.6983 -49.8963 -17.0864
lowerback 28.596 -1.89902 -4.94688
upperback 5.55633 -4.26779 -1.1712
thorax -9.26046 -1.99108 3.05398
lowerneck -7.20355 -5.94388 0.607382
upperneck 16.2293 -8.76447 2.965
head 6.21974 -4.02447 0.175799
rclavicle 6.99722e-014 3.18055e-015
rhumerus -36.9955 14.837 -91.8948
rradius 126.362
rwrist 13.1062
rhand 15.3723 -20.7452
rfingers 7.12502
rthumb 40.202 -45.91
lclavicle 6.99722e-014 3.18055e-015
lhumerus -43.3489 -3.24142 90.8283
lradius 132.276
lwrist -0.475682
lhand 0.0256217 42.3594
lfingers 7.12502
lthumb 25.6149 70.6566
rfemur -50.3363 -2.81291 29.6334
rtibia 62.8101
rfoot -19.6068 -2.66499
rtoes -2.23193
lfemur -48.5525 26.6373 -19.8734
ltibia 66.4442
lfoot -30.847 13.2061
ltoes -5.57369
466
root 6.81479 14.9345 -16.7509 23.6717 -49.7388 -17.0763
lowerback 28.5902 -1.88589 -4.9585
upperback 5.55055 -4.2537 -1.17483
thorax -9.26463 -1.98356 3.05152
lowerneck -7.19703 -5.91806 0.620634
upperneck 16.1943 -8.72681 2.95594
head 6.20601 -4.00684 0.174665
rclavicle 5.725e-014 -1.59028e-014
rhumerus -36.9997 14.7939 -91.862
rradius 126.376
rwrist 13.0993
rhand 15.3686 -20.7436
rfingers 7.12502
rthumb 40.1985 -45.9095
lclavicle 5.725e-014 -1.59028e-014
lhumerus -43.3544 -3.23535 90.8108
lradius 132.273
lwrist -0.472708
lhand 0.030329 42.3434
lfingers 7.12502
lthumb 25.6194 70.64
rfemur -50.3059 -2.86 29.6387
rtibia 62.8008
rfoot -19.6167 -2.72457
rtoes -2.32328
lfemur -48.5227 26.4379 -19.8131
ltibia 66.42
lfoot -30.8465 13.2586
ltoes -5.5867
467
root 6.81598 14.9356 -16.7482 23.6329 -49.5824 -17.0571
lowerback 28.5885 -1.87006 -4.97739
upperback 5.54451 -4.23895 -1.18135
thorax -9.27093 -1.97549 3.04999
lowerneck -7.19328 -5.89209 0.638214
upperneck 16.1609 -8.6882 2.93858
head 6.19265 -3.98901 0.170217
rclavicle 5.24792e-014 -6.67916e-014
rhumerus -37.005 14.7494 -91.8301
rradius 126.387
rwrist 13.1015
rhand 15.3681 -20.7372
rfingers 7.12502
rthumb 40.198 -45.9032
lclavicle 5.24792e-014 -6.67916e-014
lhumerus -43.3581 -3.23374 90.7962
lradius 132.27
lwrist -0.471088
lhand 0.0272189 42.3298
lfingers 7.12502
lthumb 25.6164 70.6268
rfemur -50.2706 -2.90476 29.6347
rtibia 62.7943
rfoot -19.6297 -2.7848
rtoes -2.40813
lfemur -48.4842 26.2336 -19.7573
ltibia 66.3933
lfoot -30.8485 13.3152
ltoes -5.59709
468
root 6.81736 14.9369 -16.7453 23.5815 -49.4234 -17.0283
lowerback 28.5904 -1.85474 -4.99966
upperback 5.53831 -4.22648 -1.19159
thorax -9.27909 -1.96836 3.04719
lowerneck -7.19117 -5.86391 0.661797
upperneck 16.1279 -8.64625 2.91419
head 6.1791 -3.96969 0.162819
rclavicle 2.8625e-014 2.8625e-014
rhumerus -37.01 14.7087 -91.7989
rradius 126.393
rwrist 13.1076
rhand 15.3667 -20.7371
rfingers 7.12502
rthumb 40.1967 -45.9035
lclavicle 2.8625e-014 2.8625e-014
lhumerus -43.3596 -3.23311 90.7754
lradius 132.266
lwrist -0.472458
lhand 0.0359363 42.3202
lfingers 7.12502
lthumb 25.6248 70.616
rfemur -50.2308 -2.95366 29.6232
rtibia 62.7902
rfoot -19.6436 -2.84781
rtoes -2.49643
lfemur -48.4366 26.0226 -19.7063
ltibia 66.3627
lfoot -30.8525 13.3736
ltoes -5.59863
469
root 6.81891 14.9383 -16.7419 23.519 -49.2597 -16.9916
lowerback 28.5954 -1.84051 -5.02445
upperback 5.53244 -4.21646 -1.20306
thorax -9.28815 -1.96228 3.04544
lowerneck -7.18882 -5.83461 0.685117
upperneck 16.0952 -8.60194 2.885
head 6.16539 -3.9496 0.154147
rclavicle -3.18055e-015 6.36111e-015
rhumerus -37.0133 14.6739 -91.7675
rradius 126.393
rwrist 13.1221
rhand 15.3627 -20.7328
rfingers 7.12502
rthumb 40.193 -45.9003
lclavicle -3.18055e-015 6.36111e-015
lhumerus -43.3603 -3.23465 90.7523
lradius 132.262
lwrist -0.470412
lhand 0.0467343 42.3097
lfingers 7.12502
lthumb 25.6351 70.6041
rfemur -50.1866 -3.00925 29.6057
rtibia 62.7877
rfoot -19.6581 -2.91201
rtoes -2.59465
lfemur -48.3797 25.8023 -19.6579
ltibia 66.3273
lfoot -30.8564 13.434
ltoes -5.59108
470
root 6.82053 14.9399 -16.7383 23.4431 -49.0903 -16.9436
lowerback 28.6034 -1.82714 -5.05002
upperback 5.5266 -4.20836 -1.21828
thorax -9.29879 -1.95704 3.04075
lowerneck -7.185 -5.80637 0.708677
upperneck 16.0652 -8.55913 2.85509
head 6.15227 -3.93024 0.145088
rclavicle 2.54444e-014 1.59028e-014
rhumerus -37.0155 14.6386 -91.7363
rradius 126.387
rwrist 13.1434
rhand 15.3642 -20.7287
rfingers 7.12502
rthumb 40.1943 -45.8958
lclavicle 2.54444e-014 1.59028e-014
lhumerus -43.3617 -3.2453 90.7265
lradius 132.253
lwrist -0.469108
lhand 0.0497302 42.3091
lfingers 7.12502
lthumb 25.638 70.603
rfemur -50.1376 -3.07414 29.5809
rtibia 62.7867
rfoot -19.6721 -2.97282
rtoes -2.68423
lfemur -48.3133 25.5692 -19.6132
ltibia 66.287
lfoot -30.8614 13.4916
ltoes -5.5707
471
root 6.82216 14.9418 -16.7343 23.3576 -48.9124 -16.8917
lowerback 28.6173 -1.81639 -5.07287
upperback 5.52023 -4.20338 -1.23532
thorax -9.31307 -1.95318 3.03388
lowerneck -7.17774 -5.77832 0.729807
upperneck 16.0405 -8.51676 2.82605
head 6.14042 -3.91113 0.13666
rclavicle 9.54166e-015 3.18055e-015
rhumerus -37.021 14.6063 -91.7099
rradius 126.38
rwrist 13.1672
rhand 15.3675 -20.7277
rfingers 7.12502
rthumb 40.1975 -45.8938
lclavicle 9.54166e-015 3.18055e-015
lhumerus -43.3704 -3.25911 90.696
lradius 132.24
lwrist -0.469958
lhand 0.0574908 42.3051
lfingers 7.12502
lthumb 25.6454 70.598
rfemur -50.081 -3.1492 29.5539
rtibia 62.786
rfoot -19.6853 -3.0272
rtoes -2.764
lfemur -48.2357 25.325 -19.5646
ltibia 66.2426
lfoot -30.8698 13.5361
ltoes -5.51709
472
root 6.8237 14.9437 -16.7299 23.2611 -48.7264 -16.8351
lowerback 28.6374 -1.80781 -5.09165
upperback 5.51386 -4.20078 -1.2557
thorax -9.33088 -1.95042 3.02209
lowerneck -7.16852 -5.75164 0.750935
upperneck 16.0218 -8.47692 2.79867
head 6.13024 -3.89305 0.128499
rclavicle -1.47896e-013 5.08889e-014
rhumerus -37.0293 14.5717 -91.6883
rradius 126.37
rwrist 13.1916
rhand 15.3719 -20.7244
rfingers 7.12502
rthumb 40.2016 -45.8893
lclavicle -1.47896e-013 5.08889e-014
lhumerus -43.3808 -3.27708 90.6643
lradius 132.22
lwrist -0.467975
lhand 0.0564373 42.3062
lfingers 7.12502
lthumb 25.6444 70.5992
rfemur -50.0153 -3.23429 29.5234
rtibia 62.7857
rfoot -19.6962 -3.0766
rtoes -2.84865
lfemur -48.1459 25.0697 -19.5137
ltibia 66.1938
lfoot -30.8751 13.5825
ltoes -5.47591
473
root 6.82483 14.946 -16.7252 23.1544 -48.5358 -16.7826
lowerback 28.6696 -1.79814 -5.10825
upperback 5.50826 -4.19715 -1.27739
thorax -9.35421 -1.94708 3.00785
lowerneck -7.15921 -5.72607 0.771432
upperneck 16.0096 -8.43937 2.77377
head 6.12231 -3.87583 0.120906
rclavicle 4.92986e-014 9.54166e-015
rhumerus -37.0432 14.5377 -91.6726
rradius 126.362
rwrist 13.2118
rhand 15.3735 -20.7277
rfingers 7.12502
rthumb 40.2031 -45.8921
lclavicle 4.92986e-014 9.54166e-015
lhumerus -43.3928 -3.29725 90.633
lradius 132.194
lwrist -0.467632
lhand 0.0560966 42.3069
lfingers 7.12502
lthumb 25.6441 70.6
rfemur -49.9307 -3.32098 29.4933
rtibia 62.7842
rfoot -19.706 -3.12464
rtoes -2.94415
lfemur -48.0341 24.813 -19.4502
ltibia 66.1407
lfoot -30.8836 13.6165
ltoes -5.42382
